<?xml version="1.0" encoding="utf-8"?>
<!-- Generator: Adobe Illustrator 23.0.1, SVG Export Plug-In . SVG Version: 6.00 Build 0)  -->
<svg version="1.1" id="Livello_1" xmlns="http://www.w3.org/2000/svg" xmlns:xlink="http://www.w3.org/1999/xlink" x="0px" y="0px"
	 viewBox="0 0 167.5 167.5" style="enable-background:new 0 0 167.5 167.5;" xml:space="preserve">
<style type="text/css">
	.st0{fill:#1ED760;}
</style>
<title>Spotify</title>
<path class="st0" d="M83.7,0C37.5,0,0,37.5,0,83.7c0,46.3,37.5,83.7,83.7,83.7c46.3,0,83.7-37.5,83.7-83.7S130,0,83.7,0z M122,120.8
	c-1.4,2.5-4.6,3.2-7,1.7c-19.8-12-44.5-14.7-73.7-8c-2.8,0.5-5.6-1.2-6.2-4c-0.2-2.8,1.5-5.6,4-6.2c32-7.3,59.6-4.2,81.6,9.3
	c2.6,1.5,3.4,4.7,1.8,7.2H122z M132.5,98c-2,3-6,4-9,2.2c-22.5-14-56.8-18-83.4-9.8c-3.2,1-7-1-8-4.3s1-7,4.6-8
	c30.4-9,68.2-4.5,94,11c3,2,4,6,2,9L132.5,98z M133.5,74.2c-27-16-71.6-17.5-97.4-9.7c-4,1.3-8.2-1-9.5-5.2c-1.3-4,1-8.5,5.2-9.8
	c29.6-9,78.8-7.2,109.8,11.2c3.7,2.2,5,7,2.7,10.7c-2,3.8-7,5-10.6,2.8L133.5,74.2z"/>
</svg>
